name ./resultDataOpenSim/trcMotMarkerGrf/sub09/grf-01-08.mot
datacolumns 19
datarows 22
range 0.94000000 1.02400000
endheader

                time	     ground_force_vx	     ground_force_vy	     ground_force_vz	     ground_force_px	     ground_force_py	     ground_force_pz	   l_ground_force_vx	   l_ground_force_vy	   l_ground_force_vz	   l_ground_force_px	   l_ground_force_py	   l_ground_force_pz	     ground_torque_x	     ground_torque_y	     ground_torque_z	   l_ground_torque_x	   l_ground_torque_y	   l_ground_torque_z	
          0.94000000	          0.00000000	          0.00000000	          0.00000000	          0.00000000	          0.00000000	          0.00000000	        -14.51854866	        382.51023472	          6.96838324	          0.08438621	         -0.00000000	          0.02442681	          0.00000000	          0.00000000	          0.00000000	          0.00000000	         -1.32913093	          0.00000000	
          0.94400000	          0.00000000	          0.00000000	          0.00000000	          0.00000000	          0.00000000	          0.00000000	        -13.97110384	        387.38464212	          8.55703527	          0.08545874	         -0.00000000	          0.02425893	          0.00000000	          0.00000000	          0.00000000	          0.00000000	         -1.26456956	          0.00000000	
          0.94800000	          0.00000000	          0.00000000	          0.00000000	          0.00000000	          0.00000000	          0.00000000	        -13.11257053	        392.72246131	         10.29639114	          0.08642267	         -0.00000000	          0.02409634	          0.00000000	          0.00000000	          0.00000000	          0.00000000	         -1.22265690	          0.00000000	
          0.95200000	          0.00000000	          0.00000000	          0.00000000	          0.00000000	          0.00000000	          0.00000000	        -11.90483682	        398.47877827	         12.06860139	          0.08733185	         -0.00000000	          0.02397945	          0.00000000	          0.00000000	          0.00000000	          0.00000000	         -1.20922840	          0.00000000	
          0.95600000	          0.00000000	          0.00000000	          0.00000000	          0.00000000	          0.00000000	          0.00000000	        -10.33941274	        404.62212733	         13.78418581	          0.08824138	         -0.00000000	          0.02393175	          0.00000000	          0.00000000	          0.00000000	          0.00000000	         -1.22667406	          0.00000000	
          0.96000000	          0.00000000	          0.00000000	          0.00000000	          0.00000000	          0.00000000	          0.00000000	         -8.45806064	        411.11797306	         15.38608573	          0.08916353	         -0.00000000	          0.02395256	          0.00000000	          0.00000000	          0.00000000	          0.00000000	         -1.27431144	          0.00000000	
          0.96400000	          0.00000000	          0.00000000	          0.00000000	          0.00000000	          0.00000000	          0.00000000	         -6.34826902	        417.95706175	         16.84019241	          0.09007233	         -0.00000000	          0.02402315	          0.00000000	          0.00000000	          0.00000000	          0.00000000	         -1.34948769	          0.00000000	
          0.96800000	          0.00000000	          0.00000000	          0.00000000	          0.00000000	          0.00000000	          0.00000000	         -4.09820004	        425.19200823	         18.13909637	          0.09093767	         -0.00000000	          0.02411982	          0.00000000	          0.00000000	          0.00000000	          0.00000000	         -1.44897718	          0.00000000	
          0.97200000	          0.00000000	          0.00000000	          0.00000000	          0.00000000	          0.00000000	          0.00000000	         -1.74261477	        432.91423068	         19.30967535	          0.09173857	         -0.00000000	          0.02422008	          0.00000000	          0.00000000	          0.00000000	          0.00000000	         -1.57031937	          0.00000000	
          0.97600000	          0.00000000	          0.00000000	          0.00000000	          0.00000000	          0.00000000	          0.00000000	          0.74988174	        441.18375933	         20.39579662	          0.09244736	         -0.00000000	          0.02430410	          0.00000000	          0.00000000	          0.00000000	          0.00000000	         -1.71290098	          0.00000000	
          0.98000000	          0.00000000	          0.00000000	          0.00000000	          0.00000000	          0.00000000	          0.00000000	          3.44303455	        449.98853331	         21.41629085	          0.09303198	         -0.00000000	          0.02437521	          0.00000000	          0.00000000	          0.00000000	          0.00000000	         -1.87860432	          0.00000000	
          0.98400000	          0.00000000	          0.00000000	          0.00000000	          0.00000000	          0.00000000	          0.00000000	          6.39324196	        459.27257916	         22.33040164	          0.09351820	         -0.00000000	          0.02447309	          0.00000000	          0.00000000	          0.00000000	          0.00000000	         -2.07178603	          0.00000000	
          0.98800000	          0.00000000	          0.00000000	          0.00000000	          0.00000000	          0.00000000	          0.00000000	          9.63310535	        468.99315538	         23.04412977	          0.09397362	         -0.00000000	          0.02463746	          0.00000000	          0.00000000	          0.00000000	          0.00000000	         -2.29843154	          0.00000000	
          0.99200000	          0.00000000	          0.00000000	          0.00000000	          0.00000000	          0.00000000	          0.00000000	         13.17444603	        479.15704221	         23.45614514	          0.09444811	         -0.00000000	          0.02486750	          0.00000000	          0.00000000	          0.00000000	          0.00000000	         -2.56459207	          0.00000000	
          0.99600000	          0.00000000	          0.00000000	          0.00000000	          0.00000000	          0.00000000	          0.00000000	         17.01832530	        489.82435186	         23.50325206	          0.09493028	         -0.00000000	          0.02513010	          0.00000000	          0.00000000	          0.00000000	          0.00000000	         -2.87447615	          0.00000000	
          1.00000000	          0.00000000	          0.00000000	          0.00000000	          0.00000000	          0.00000000	          0.00000000	         21.17306577	        501.05848753	         23.17753047	          0.09539755	         -0.00000000	          0.02539916	          0.00000000	          0.00000000	          0.00000000	          0.00000000	         -3.22869299	          0.00000000	
          1.00400000	          0.00000000	          0.00000000	          0.00000000	          0.00000000	          0.00000000	          0.00000000	         25.66908781	        512.83898819	         22.52345251	          0.09587218	         -0.00000000	          0.02567558	          0.00000000	          0.00000000	          0.00000000	          0.00000000	         -3.62312642	          0.00000000	
          1.00800000	          0.00000000	          0.00000000	          0.00000000	          0.00000000	          0.00000000	          0.00000000	         30.54306985	        525.03393948	         21.62799257	          0.09639933	         -0.00000000	          0.02597381	          0.00000000	          0.00000000	          0.00000000	          0.00000000	         -4.04875545	          0.00000000	
          1.01200000	          0.00000000	          0.00000000	          0.00000000	          0.00000000	          0.00000000	          0.00000000	         35.80577551	        537.44885591	         20.60289231	          0.09696758	         -0.00000000	          0.02628693	          0.00000000	          0.00000000	          0.00000000	          0.00000000	         -4.49243724	          0.00000000	
          1.01600000	          0.00000000	          0.00000000	          0.00000000	          0.00000000	          0.00000000	          0.00000000	         41.42799698	        549.87482466	         19.56184249	          0.09752176	         -0.00000000	          0.02658213	          0.00000000	          0.00000000	          0.00000000	          0.00000000	         -4.93840687	          0.00000000	
          1.02000000	          0.00000000	          0.00000000	          0.00000000	          0.00000000	          0.00000000	          0.00000000	         47.34256729	        562.13632621	         18.60531532	          0.09800205	         -0.00000000	          0.02682289	          0.00000000	          0.00000000	          0.00000000	          0.00000000	         -5.37014753	          0.00000000	
          1.02400000	          0.00000000	          0.00000000	          0.00000000	          0.00000000	          0.00000000	          0.00000000	         53.44897212	        574.18143219	         17.81006251	          0.09837629	         -0.00000000	          0.02698601	          0.00000000	          0.00000000	          0.00000000	          0.00000000	         -5.77223240	          0.00000000	
